HIERARCHY
ROOT Hips
{
  OFFSET 0.0 0.0 0.0
  CHANNELS 6 XPOSITION YPOSITION ZPOSITION ZROTATION XROTATION YROTATION 
  JOINT RightUpLeg
  {
    OFFSET -0.089458 -0.0866707 0.00101652
    CHANNELS 3 ZROTATION XROTATION YROTATION 
    JOINT RightLeg
    {
      OFFSET 0.0 -0.444227 0.013727
      CHANNELS 3 ZROTATION XROTATION YROTATION 
      JOINT RightFoot
      {
        OFFSET 0.00253549 -0.420924 -0.0146059
        CHANNELS 3 ZROTATION XROTATION YROTATION 
        JOINT RightToes
        {
          OFFSET 0.0004 -0.0441509 0.084991
          CHANNELS 3 ZROTATION XROTATION YROTATION 
          End Site
          {
            OFFSET -0.0008 -0.00137448 0.0977979
          }
        }
      }
    }
  }
  JOINT Spine
  {
    OFFSET 0.0 0.118905 0.0
    CHANNELS 3 ZROTATION XROTATION YROTATION 
    JOINT Spine1
    {
      OFFSET 0.0 0.256574 0.00127663
      CHANNELS 3 ZROTATION XROTATION YROTATION 
      JOINT HEad
      {
        OFFSET 0.0 0.0873416 0.00011341
        CHANNELS 3 ZROTATION XROTATION YROTATION 
        End Site
        {
          OFFSET -0.0029 0.127742 0.0251395
        }
      }
      JOINT LeftShoulder1
      {
        OFFSET 0.0899 -0.00362252 -0.0022
        CHANNELS 3 ZROTATION XROTATION YROTATION 
        JOINT LeftArm
        {
          OFFSET 0.102827 -3.37999e-005 0.00322123
          CHANNELS 3 ZROTATION XROTATION YROTATION 
          JOINT LeftForeArm
          {
            OFFSET 0.262597 0.00099144 -0.0142434
            CHANNELS 3 ZROTATION XROTATION YROTATION 
            JOINT LeftHand
            {
              OFFSET 0.220902 0.00085362 0.0102216
              CHANNELS 3 ZROTATION XROTATION YROTATION 
              End Site
              {
                OFFSET 0.13419 -0.006 0.0150291
              }
            }
          }
        }
      }
      JOINT RightShoulder
      {
        OFFSET -0.0899 -0.00362252 -0.0022
        CHANNELS 3 ZROTATION XROTATION YROTATION 
        JOINT RightArm
        {
          OFFSET -0.102827 -3.38e-005 0.00322123
          CHANNELS 3 ZROTATION XROTATION YROTATION 
          JOINT RightForeArm
          {
            OFFSET -0.26364 0.00099144 -0.0142434
            CHANNELS 3 ZROTATION XROTATION YROTATION 
            JOINT RightHand
            {
              OFFSET -0.220324 0.00085362 0.0102216
              CHANNELS 3 ZROTATION XROTATION YROTATION 
              End Site
              {
                OFFSET -0.133284 -0.006 0.0150291
              }
            }
          }
        }
      }
    }
  }
  JOINT LeftUpLeg
  {
    OFFSET 0.089458 -0.0866707 0.00101652
    CHANNELS 3 ZROTATION XROTATION YROTATION 
    JOINT LeftLeg
    {
      OFFSET 0.0 -0.444227 0.013727
      CHANNELS 3 ZROTATION XROTATION YROTATION 
      JOINT LeftFoot
      {
        OFFSET -0.00253549 -0.420924 -0.0146059
        CHANNELS 3 ZROTATION XROTATION YROTATION 
        JOINT LeftToes
        {
          OFFSET -0.0004 -0.0441509 0.084991
          CHANNELS 3 ZROTATION XROTATION YROTATION 
          End Site
          {
            OFFSET 0.0008 -0.00047448 0.0977979
          }
        }
      }
    }
  }
}
MOTION
Frames: 12
Frame Time: 0.033333
-1.03638 1.11857 -1.08794 -0.37245392402 0.447141989233 90.004100618 2.92804041204 -3.44536982539 1.19160024541 -1.33389154867 13.4862341294 -14.1546902293 -1.66422062783 -14.3101180141 -0.314511961867 0.0462047989973 0.000530889001377 0.662642008108 -5.10749764057 3.1935938981 -1.20748929313 3.15126358728 6.69361014605 -2.03085685819 -1.91156248169 23.9243870587 0.215871717236 -32.2120258994 -3.9641081787 13.8406150794 -75.8039870694 -42.8553730793 -38.1895581591 -173.388013062 63.5382035843 173.983455294 9.91824575982 8.88406547325 -7.49202681662 31.3235241563 -1.10717537201 -7.04566797795 51.2687215517 -15.0481225152 17.2425786257 7.21767775446 62.0789541587 8.74288034046 -1.69376301026 9.84592174047 1.08542965051 -0.738964089358 -7.93550673056 -0.367147000437 1.67061539244 18.3975021427 13.0673557031 0.583247782474 -16.0011593007 0.125671305241 -1.34127002505e-009 8.75216996803e-006 -1.46701510308e-008 
-1.03524996287 1.11739175 -1.08433512069 -0.418919407459 0.336191462541 90.3898628721 3.24176828953 -3.54562334203 1.21420774467 -1.18750437306 13.8280594841 -14.6072269741 -1.79790877423 -14.6833460173 -0.330947478084 0.0462047989973 0.000530889001377 0.662642008108 -4.7566312498 3.71103259448 -1.28581043201 3.12583287201 6.18962073248 -2.08387299997 -1.77145993389 23.7292007427 0.0889608593918 -32.0003685823 -3.85017037806 13.6016848169 -76.0220681794 -42.8303984926 -38.2879982605 -173.343302644 63.60268057 173.998399748 9.21945508225 8.95731327568 -7.57029651564 31.4955014895 -1.11123720013 -7.03982389734 51.1211894656 -15.5617322502 16.9229326028 7.3622011422 62.2751991539 8.50596925269 -1.73587603569 9.84378218372 1.05502218194 -0.364276906923 -8.80613899124 -0.474434011094 1.73875794864 20.0567207241 12.7250274756 0.0324899258862 -16.4121027547 0.0869170320044 -1.34127002505e-009 8.75216996803e-006 -1.46701510308e-008 
-1.0338136468 1.1160995 -1.08069707252 -0.396014127954 0.232185530687 90.7229780281 3.60415037925 -3.60126078235 1.29573661787 -1.10115968289 14.2619822559 -15.0731978472 -1.91242159142 -15.1019580662 -0.348483855376 0.0462047989973 0.000530889001377 0.662642008108 -4.43932670105 4.09948124739 -1.34382669915 3.21990805565 6.03816982537 -2.14789364372 -1.59515482216 23.460092997 0.0123965790664 -31.9362911626 -3.82633429852 13.5561991722 -76.4894648545 -42.7946253768 -38.7029595734 -173.268102261 63.735008655 174.109868435 9.57821845237 8.87435806689 -8.14475469843 31.4210558426 -1.06730168813 -6.93028473853 50.9664754357 -15.6179891033 16.7375629762 7.56692496352 62.0542903456 8.30931017723 -1.77532859572 9.84136771185 1.05229693646 0.0345546640579 -9.86746330334 -0.723375623321 1.7918856146 22.2169012379 12.5093753517 -0.760638787555 -16.5367195561 0.0263333924711 -1.34127002505e-009 8.75216996803e-006 -1.46701510308e-008 
-1.03238512109 1.11454975 -1.07741370975 -0.408255801298 0.139199175244 91.0248382385 3.92211062615 -3.8150900996 1.34027009159 -1.02435260485 14.9239223553 -15.4817558577 -2.02346616662 -15.6148574616 -0.368555139984 0.0462047989973 0.000530889001377 0.662642008108 -4.13917702618 4.57171625774 -1.32029563024 3.45773972486 5.83351857481 -2.15534815487 -1.31299138326 22.9273638549 -0.198274521912 -31.9759540711 -3.84885343221 13.604558619 -76.7505010242 -42.5364476413 -38.9807262914 -173.124777572 64.171567026 173.881548871 10.0650546996 8.79381220733 -8.43922891299 31.3515620829 -1.04970274524 -6.88970188891 50.6421882992 -15.3593810659 16.6149166844 7.50423834109 61.6627839023 8.40573110397 -1.70024091108 9.84330748557 1.03656444948 0.293668145511 -11.2828279098 -1.15970550314 1.88305199143 24.8721902117 12.5139447482 -1.00815150286 -16.3380993626 0.00616505906206 -1.34127002505e-009 8.75216996803e-006 -1.46701510308e-008 
-1.0305096802 1.112694 -1.0744101822 -0.33413552224 0.0940122578606 91.3836349058 4.18774180562 -3.99226136468 1.30433667981 -0.953393235957 15.7654972837 -15.8662869702 -2.08919499799 -16.2567347341 -0.38933951235 0.0462047989973 0.000530889001377 0.662642008108 -3.84539095319 5.07236314748 -1.29593202531 3.75799014502 5.73961713411 -2.17170069496 -0.946854397043 22.3244118305 -0.480942434321 -32.0226657349 -3.89515016195 13.7129810419 -77.0401556865 -42.2766272452 -39.2419537064 -173.015139375 64.5560930159 173.715862142 10.2872450222 8.76268276641 -8.4929714027 31.2219933943 -1.03129218377 -6.85191301355 50.4808045894 -15.328964526 16.5822478896 7.33910485752 61.4691890205 8.54102007596 -1.68769310652 9.84318112707 1.07125188534 0.32196046992 -12.8388525782 -1.90259316265 1.99342827531 27.8375885568 12.7430386845 -0.232644193898 -15.8565351676 0.0610393395495 -1.34127002505e-009 8.75216996803e-006 -1.46701510308e-008 
-1.02778398234 1.11078625 -1.07158074585 -0.206105840723 0.0791515871657 91.725096553 4.43000861548 -4.04260455462 1.2403015219 -0.903189958175 16.5776323893 -16.1923055597 -2.11861368996 -16.9317742826 -0.409226488573 0.0462047989973 0.000530889001377 0.662642008108 -3.52737862609 5.41280453515 -1.2800872671 3.98048611856 5.83051627979 -2.18131909541 -0.566075352879 21.9080861874 -0.787272363171 -32.0346014905 -3.93090833669 13.8029389022 -77.2865411004 -42.2386069972 -39.3550718844 -173.025534923 64.6195113223 173.813861697 10.2674383274 8.75827644063 -8.57014912522 31.0580210429 -1.00100701827 -6.78513254649 50.5873282197 -15.8311815054 16.6450583092 7.33922780093 61.6561586188 8.40532641527 -1.73236382436 9.84319734877 1.11904773489 0.210200125584 -14.352604352 -2.69666199093 2.00598344366 30.7203057545 12.8526154093 1.40634715588 -15.3156815156 0.1701084226 -1.34127002505e-009 8.75216996803e-006 -1.46701510308e-008 
-1.02445589747 1.1091695 -1.06897356089 -0.234501204939 0.0471496529493 91.8647807517 4.64596212156 -4.15187306719 1.2415100385 -0.8821835513 17.2079751798 -16.3698170536 -2.18237884195 -17.5093026354 -0.429796243588 0.0462047989973 0.000530889001377 0.662642008108 -3.1971172085 5.63536624926 -1.20468774163 4.05727238587 5.69367130533 -2.10253329022 -0.320860809464 21.7147713433 -0.997625114135 -32.137703196 -3.96652222368 13.8682064823 -76.9532142085 -42.4696927874 -38.9703170831 -173.164529273 64.3061080923 173.932461101 10.2391237782 8.73288521239 -8.90352553597 31.0328996072 -0.984293331927 -6.74234397266 50.5781791813 -16.3860011868 16.726832749 7.58370161566 61.8659820301 8.00431661758 -1.6650081273 9.84679258959 1.0827298048 0.108411610642 -15.9356816922 -3.28921547926 1.77673870962 33.2713165227 12.3841054134 2.69102879241 -15.1680777125 0.258954936354 -1.34127002505e-009 8.75216996803e-006 -1.46701510308e-008 
-1.02029790839 1.10785425 -1.06671864384 -0.241893764138 0.184816928153 91.9781755523 4.67103361157 -4.11198775065 1.14469605572 -0.907289672503 17.6982495736 -16.4246310292 -2.22397021169 -18.0976141494 -0.44946358654 0.0462047989973 0.000530889001377 0.662642008108 -2.91723121079 5.8554417745 -1.0982145907 3.98364251973 5.40859884617 -1.95970442973 -0.131976050093 21.4496046167 -0.984799833143 -32.2471159963 -3.98513790427 13.8871073233 -76.2110253628 -42.8303916624 -38.1343190042 -173.330407247 63.8639489662 173.942323894 10.3176888829 8.68358149186 -9.36133860188 31.1090254806 -0.989421416611 -6.74959549913 50.3378384848 -16.568577266 16.643731545 7.51593930891 61.3263219536 8.06826170237 -1.58722059695 9.84896800484 1.02235989716 -0.237103026765 -17.5142920886 -4.26719013916 1.22060186895 35.5123015894 11.5427746643 1.86986908601 -15.7962911916 0.217297279101 -1.34127002505e-009 8.75216996803e-006 -1.46701510308e-008 
-1.0153776884 1.106677 -1.06497260594 -0.0431472554772 0.377809032453 92.3129231235 4.55042826564 -3.71075725248 0.827188522289 -0.866385697276 18.0266758047 -16.4967407514 -2.23101213672 -18.695190815 -0.466234475717 0.0462047989973 0.000530889001377 0.662642008108 -2.54917366076 6.27331317481 -1.07588456787 3.77953981874 5.27215727976 -1.88457021442 -0.157066469865 20.9686312331 -1.21334618034 -32.2816835837 -4.01545113758 13.9560102716 -75.676412796 -43.3066573381 -37.4792082402 -173.09006655 64.7035158189 173.682885989 9.38688009428 8.88863316226 -8.26621680621 31.0302119277 -0.999666486923 -6.78389500159 50.6613777156 -17.281981987 16.8583924377 7.51487977581 61.5085514007 7.8997430063 -1.58429599532 9.85042198136 1.1603734743 -0.862812601205 -19.206507314 -5.42088166073 0.762984850813 37.8142802454 10.3879074964 1.28223205322 -15.7306718567 0.172834068285 -1.34127002505e-009 8.75216996803e-006 -1.46701510308e-008 
-1.00967984333 1.1057135 -1.06364649456 0.13934725161 0.52080672669 92.7550071175 4.43329479024 -3.13946336827 0.475625665661 -0.83080601459 18.0889124884 -16.6277693929 -2.15000054363 -19.1672695848 -0.470951254948 0.0462047989973 0.000530889001377 0.662642008108 -2.16225774499 6.52926768377 -1.06395991135 3.67166466476 5.35470694607 -1.84111292238 -0.246689944317 20.3660463313 -1.58519544586 -32.4976029388 -4.12077478901 14.1679766548 -75.3177868835 -43.8656434349 -37.2182779384 -173.192901878 64.3499920577 174.056401714 9.06222156624 8.96241457322 -7.77026396397 30.9026820506 -0.970716836848 -6.7167397279 50.896332808 -17.7290042078 17.131383146 7.42394946739 61.30488882 7.99713125858 -1.53912016366 9.85423834956 1.14262949661 -1.59106439262 -21.21521643 -6.13144971886 0.748985577696 40.1680488107 9.63785710288 1.10945857618 -15.0708106961 0.148732758623 -1.34127002505e-009 8.75216996803e-006 -1.46701510308e-008 
-1.00299896406 1.1049925 -1.06265633663 0.255842851372 0.795392604321 92.9515526411 4.23403170517 -2.47263263993 0.0525179581884 -0.768391532511 17.94066494 -16.4613569564 -2.08544501069 -19.558198877 -0.475716112306 0.0462047989973 0.000530889001377 0.662642008108 -1.8543965731 6.63639578581 -0.901260323013 3.60449274248 5.45387446263 -1.65183141173 -0.314845974126 19.9339122153 -1.94959852452 -32.7904063183 -4.27555498646 14.4836842199 -75.0098546349 -44.5319659545 -37.0115007915 -173.314315321 63.8706835327 174.544609975 9.08622114344 8.96911840389 -7.62403388271 30.7479885112 -0.915167548658 -6.57950756709 50.7463964953 -17.3398131987 17.3225601409 7.11714932271 60.5499685016 8.56969150255 -1.53969742136 9.85445008543 1.16727377963 -2.28428441059 -23.2506981801 -6.33036275674 0.815485366673 41.8969062934 9.49307331418 1.83876696585 -14.4500865194 0.183849922777 -1.34127002505e-009 8.75216996803e-006 -1.46701510308e-008 
-0.995777960103 1.10461 -1.06208153049 0.250698198143 1.06021728785 92.7460459093 3.96583621656 -1.8619044451 -0.313570089453 -0.744629571192 17.675484553 -15.930511239 -2.03088652682 -19.8698091824 -0.479012692437 0.0462047989973 0.000530889001377 0.662642008108 -1.48519080424 6.79915705929 -0.568951769654 3.26638365097 5.25191089151 -1.22955582007 -0.378557338374 19.6675160547 -2.21609863211 -32.9910226346 -4.38037405767 14.6945475275 -74.312034698 -45.4045021304 -36.2533532087 -173.307976905 63.8260072653 174.792217993 9.12276863191 8.97462353636 -7.48228525932 30.6280845403 -0.880078839179 -6.49394920246 50.4442664925 -16.5268362724 17.554200884 6.86060528305 59.7024581388 9.17044505986 -1.66170306279 9.84938293884 1.37175929137 -2.80958465471 -25.2097330378 -6.07247445047 0.83076972921 42.4753311086 9.54351169988 2.41709295669 -14.2986578104 0.214713880109 -1.34127002505e-009 8.75216996803e-006 -1.46701510308e-008 
